# xmcd CD database file generated by OrangeCD 5.2
#
# Track frame offsets:
#	150
#	9150
#	31630
#	39818
#	60218
#	77425
#	94373
#	110918
#	131518
#	154175
#	157210
#	176208
#	195713
#	202890
#	226620
#	246263
#	264433
#
# Disc length: 3750 seconds
#
# Revision: 2
# Processed by: cddbd v1.5.1PL0 Copyright (c) Steve Scherf et al.
# Submitted via: OrangeCD 5.2
#
DISCID=cd0ea411
DTITLE=Kelly Bell Band - ...Ain't Like It Used To Be!
DYEAR=2000
DGENRE=Blues
TTITLE0=Pain (Intro)
TTITLE1=Thinking About Tomorrow
TTITLE2=Must've Bumped Your Head
TTITLE3=Ain't Like It Used To Be!
TTITLE4=Talkin' In Your Sleep
TTITLE5=Early In The Morning
TTITLE6=Stay
TTITLE7=She Done Moved
TTITLE8=Workin' Me
TTITLE9=Missing You
TTITLE10=Lock Me Up
TTITLE11=Lost My Baby For The Blues
TTITLE12=Message From The White House
TTITLE13=Goodnight For The Blues
TTITLE14=Mama's Chasing The Dragon
TTITLE15=Take Me Away
TTITLE16=Thinking About Tomorrow (Radio Edit)
EXTD=
EXTT0=
EXTT1=
EXTT2=
EXTT3=
EXTT4=
EXTT5=
EXTT6=
EXTT7=
EXTT8=
EXTT9=
EXTT10=
EXTT11=
EXTT12=
EXTT13=
EXTT14=
EXTT15=
EXTT16=
PLAYORDER=
